
<svg width="138.56px" height="112px" viewBox="0 0 138.56 112" version="1.1" xmlns="http://www.w3.org/2000/svg" xmlns:xlink="http://www.w3.org/1999/xlink">
    <g id="Page-1" stroke="none" stroke-width="1" fill="none" fill-rule="evenodd">
        <g id="Fred" transform="translate(-0, 0)" fill="#545458" fill-rule="nonzero">
            <path d="M56.832,29.944 C58.0266667,30.1146667 58.848,30.4773333 59.296,31.032 C59.744,31.5866667 59.968,32.312 59.968,33.208 C59.968,36.152 58.3893333,37.5173333 55.232,37.304 L52.992,37.112 C50.4746667,36.8986667 47.968,36.728 45.472,36.6 C42.976,36.472 40.3626667,36.408 37.632,36.408 L34.752,36.408 C34.24,42.7226667 33.7066667,48.4826667 33.152,53.688 L44.16,53.496 C45.7386667,53.496 46.7946667,53.7733333 47.328,54.328 C47.8613333,54.8826667 48.128,55.6293333 48.128,56.568 C48.128,58.0186667 47.7013333,59.16 46.848,59.992 C45.9946667,60.824 44.7786667,61.24 43.2,61.24 L32.256,61.24 L31.872,63.992 C30.976,71.032 29.0666667,76.0453333 26.144,79.032 C23.2213333,82.0186667 19.2,83.512 14.08,83.512 C11.1786667,83.512 8.512,82.8826667 6.08,81.624 C3.648,80.3653333 1.856,78.84 0.704,77.048 C0.234666667,76.3226667 0,75.448 0,74.424 C0,73.4 0.245333333,72.504 0.736,71.736 C1.22666667,70.968 1.83466667,70.584 2.56,70.584 C3.072,70.584 3.57333333,70.7546667 4.064,71.096 C4.55466667,71.4373333 5.184,72.0986667 5.952,73.08 C8,75.768 10.5386667,77.112 13.568,77.112 C16,77.112 18.0373333,76.12 19.68,74.136 C21.3226667,72.152 22.3786667,69.0266667 22.848,64.76 L23.232,61.24 L20.16,61.24 C19.1786667,61.24 18.336,60.9626667 17.632,60.408 C16.928,59.8533333 16.576,59.064 16.576,58.04 C16.576,56.7173333 16.9173333,55.704 17.6,55 C18.2826667,54.296 19.2853333,53.944 20.608,53.944 C21.8026667,53.944 22.976,53.9226667 24.128,53.88 C24.64,49.1866667 25.1946667,43.4906667 25.792,36.792 C21.184,37.2186667 17.9413333,37.9653333 16.064,39.032 C14.1866667,40.0986667 13.248,41.6773333 13.248,43.768 C13.248,45.2186667 13.6746667,46.6053333 14.528,47.928 C14.784,48.312 14.912,48.696 14.912,49.08 C14.912,49.848 14.4853333,50.52 13.632,51.096 C12.7786667,51.672 11.8186667,51.96 10.752,51.96 C9.6,51.96 8.61866667,51.6186667 7.808,50.936 C7.296,50.5093333 6.80533333,49.6346667 6.336,48.312 C5.86666667,46.9893333 5.632,45.5173333 5.632,43.896 C5.632,38.6053333 8.352,34.7653333 13.792,32.376 C19.232,29.9866667 27.1786667,28.792 37.632,28.792 C44.8853333,28.792 51.2853333,29.176 56.832,29.944 Z" id="Path"></path>
            <path d="M53.248,83.32 C51.6266667,83.32 50.4853333,82.4666667 49.824,80.76 C49.1626667,79.0533333 48.832,76.3226667 48.832,72.568 C48.832,67.0213333 49.6213333,61.752 51.2,56.76 C51.584,55.5226667 52.2133333,54.616 53.088,54.04 C53.9626667,53.464 55.1893333,53.176 56.768,53.176 C57.6213333,53.176 58.2186667,53.2826667 58.56,53.496 C58.9013333,53.7093333 59.072,54.1146667 59.072,54.712 C59.072,55.3946667 58.752,56.9306667 58.112,59.32 C57.6853333,61.0266667 57.344,62.52 57.088,63.8 C56.832,65.08 56.6186667,66.6586667 56.448,68.536 C57.856,64.8666667 59.4346667,61.88 61.184,59.576 C62.9333333,57.272 64.6506667,55.6293333 66.336,54.648 C68.0213333,53.6666667 69.568,53.176 70.976,53.176 C73.7493333,53.176 75.136,54.5626667 75.136,57.336 C75.136,57.8906667 74.944,59.2346667 74.56,61.368 C74.2186667,63.0746667 74.048,64.1413333 74.048,64.568 C74.048,66.0613333 74.5813333,66.808 75.648,66.808 C76.8426667,66.808 78.3786667,65.8693333 80.256,63.992 C80.8106667,63.4373333 81.3866667,63.16 81.984,63.16 C82.5386667,63.16 82.976,63.4053333 83.296,63.896 C83.616,64.3866667 83.776,65.0373333 83.776,65.848 C83.776,67.4266667 83.3493333,68.664 82.496,69.56 C81.3013333,70.7973333 79.904,71.8533333 78.304,72.728 C76.704,73.6026667 75.008,74.04 73.216,74.04 C70.9546667,74.04 69.2373333,73.464 68.064,72.312 C66.8906667,71.16 66.304,69.6026667 66.304,67.64 C66.304,67 66.368,66.36 66.496,65.72 C66.5813333,64.8666667 66.624,64.2906667 66.624,63.992 C66.624,63.3093333 66.3893333,62.968 65.92,62.968 C65.28,62.968 64.4373333,63.6826667 63.392,65.112 C62.3466667,66.5413333 61.312,68.4293333 60.288,70.776 C59.264,73.1226667 58.432,75.5973333 57.792,78.2 C57.3226667,80.2053333 56.7786667,81.56 56.16,82.264 C55.5413333,82.968 54.5706667,83.32 53.248,83.32 Z" id="Path"></path>
            <path d="M106.368,68.728 C106.922667,68.728 107.36,68.984 107.68,69.496 C108,70.008 108.16,70.712 108.16,71.608 C108.16,73.3146667 107.754667,74.6373333 106.944,75.576 C105.365333,77.496 103.136,79.2666667 100.256,80.888 C97.376,82.5093333 94.2933333,83.32 91.008,83.32 C86.528,83.32 83.0506667,82.104 80.576,79.672 C78.1013333,77.24 76.864,73.912 76.864,69.688 C76.864,66.744 77.4826667,64.0026667 78.72,61.464 C79.9573333,58.9253333 81.6746667,56.9093333 83.872,55.416 C86.0693333,53.9226667 88.5546667,53.176 91.328,53.176 C93.8026667,53.176 95.7866667,53.912 97.28,55.384 C98.7733333,56.856 99.52,58.8506667 99.52,61.368 C99.52,64.312 98.464,66.84 96.352,68.952 C94.24,71.064 90.6666667,72.7386667 85.632,73.976 C86.6986667,75.9386667 88.7253333,76.92 91.712,76.92 C93.632,76.92 95.8186667,76.248 98.272,74.904 C100.725333,73.56 102.848,71.8 104.64,69.624 C105.152,69.0266667 105.728,68.728 106.368,68.728 Z M90.24,59.448 C88.6613333,59.448 87.328,60.3653333 86.24,62.2 C85.152,64.0346667 84.608,66.2533333 84.608,68.856 L84.608,68.984 C87.1253333,68.3866667 89.1093333,67.4906667 90.56,66.296 C92.0106667,65.1013333 92.736,63.7146667 92.736,62.136 C92.736,61.3253333 92.512,60.6746667 92.064,60.184 C91.616,59.6933333 91.008,59.448 90.24,59.448 Z" id="Shape"></path>
            <path d="M125.952,68.728 C126.421333,72.2266667 127.104,75.6826667 128,79.096 C128.170667,79.6506667 128.256,80.2266667 128.256,80.824 C128.256,82.744 127.082667,83.704 124.736,83.704 C123.413333,83.704 122.4,83.3413333 121.696,82.616 C120.992,81.8906667 120.341333,80.5253333 119.744,78.52 L119.68,78.264 C118.058667,80.2693333 116.597333,81.6133333 115.296,82.296 C113.994667,82.9786667 112.490667,83.32 110.784,83.32 C108.181333,83.32 106.037333,82.3493333 104.352,80.408 C102.666667,78.4666667 101.824,75.9386667 101.824,72.824 C101.824,69.4106667 102.549333,66.2533333 104,63.352 C105.450667,60.4506667 107.434667,58.072 109.952,56.216 C112.469333,54.36 115.285333,53.24 118.4,52.856 C119.210667,44.792 120.757333,37.7733333 123.04,31.8 C125.322667,25.8266667 128.362667,22.84 132.16,22.84 C133.994667,22.84 135.52,23.672 136.736,25.336 C137.952,27 138.56,29.5173333 138.56,32.888 C138.56,37.5813333 137.408,43.064 135.104,49.336 C132.8,55.608 129.749333,62.072 125.952,68.728 Z M131.456,29.112 C130.218667,29.112 129.056,32.2693333 127.968,38.584 C126.88,44.8986667 126.144,51.768 125.76,59.192 C130.496,48.952 132.864,40.632 132.864,34.232 C132.864,32.6106667 132.725333,31.352 132.448,30.456 C132.170667,29.56 131.84,29.112 131.456,29.112 Z M113.024,76.856 C113.877333,76.856 114.698667,76.536 115.488,75.896 C116.277333,75.256 117.290667,74.0186667 118.528,72.184 C118.101333,69.0693333 117.888,65.848 117.888,62.52 C117.888,61.1973333 117.909333,60.1733333 117.952,59.448 C115.605333,60.1306667 113.664,61.688 112.128,64.12 C110.592,66.552 109.824,69.24 109.824,72.184 C109.824,75.2986667 110.890667,76.856 113.024,76.856 Z" id="Shape"></path>
        </g>
    </g>
</svg>
